<svg xmlns="http://www.w3.org/2000/svg" width="21.997" height="23.997" viewBox="0 0 21.997 23.997">
  <g id="delete" transform="translate(0 -2)">
    <path id="Path_1" data-name="Path 1" d="M8,11.5v9a.494.494,0,0,1-.5.5h-1a.494.494,0,0,1-.5-.5v-9a.494.494,0,0,1,.5-.5h1a.494.494,0,0,1,.5.5Zm4,0v9a.494.494,0,0,1-.5.5h-1a.494.494,0,0,1-.5-.5v-9a.494.494,0,0,1,.5-.5h1a.494.494,0,0,1,.5.5Zm4,0v9a.494.494,0,0,1-.5.5h-1a.494.494,0,0,1-.5-.5v-9a.494.494,0,0,1,.5-.5h1a.494.494,0,0,1,.5.5Zm2,11.311V8H4v14.81A1.389,1.389,0,0,0,4.5,24h13a1.389,1.389,0,0,0,.5-1.187ZM7.5,6h7l-.75-1.828A.6.6,0,0,0,13.483,4H8.53a.526.526,0,0,0-.266.172ZM22,6.5v1a.494.494,0,0,1-.5.5H20v14.81C20,24.528,18.872,26,17.5,26H4.5C3.125,26,2,24.59,2,22.872V8H.5A.494.494,0,0,1,0,7.5v-1A.494.494,0,0,1,.5,6H5.327L6.421,3.39A2.431,2.431,0,0,1,8.5,2h5a2.431,2.431,0,0,1,2.078,1.39L16.67,6H21.5a.494.494,0,0,1,.5.5Z" fill="#ae0000"/>
  </g>
</svg>
